<svg xmlns="http://www.w3.org/2000/svg" viewBox="0 0 41.11 38.22"><defs><style>.eye_color_filltype{fill:#f4ab94;}.cls-1,.cls-4,.cls-5,.cls-6,.eye_color_linetype,.eye_line{fill:none;}.cls-1,.cls-2,.cls-6,.eye_line{stroke:#231815;}.cls-1,.cls-2,.cls-5,.cls-6{stroke-miterlimit:10;}.cls-1,.cls-2,.eye_color_linetype,.eye_line{stroke-width:6px;}.cls-2{fill:#231815;}.cls-3{fill:#fff;}.cls-4,.eye_color_linetype{stroke:#ee817e;}.cls-4,.cls-5,.eye_color_linetype,.eye_line{stroke-linecap:round;}.cls-4,.eye_color_linetype,.eye_line{stroke-linejoin:round;}.cls-4{stroke-width:8px;}.cls-5{stroke:#040000;stroke-width:4px;}.cls-6{stroke-width:5px;}</style></defs><title>eye</title><g id="eye1"><circle class="eye_color_filltype" cx="20.98" cy="18.21" r="16.11"/><circle class="cls-1" cx="20.43" cy="19.11" r="16.11"/></g><g id="eye2"><circle class="cls-2" cx="20.38" cy="19.11" r="13.4"/><circle class="cls-3" cx="25.15" cy="14.36" r="5.57"/><path class="eye_color_linetype" d="M205.69,218.2c1,1.73,2.9,3.46,7.3,3.46,4.06,0,6.4-1.73,7.19-3.46" transform="translate(-192.61 -193.92)"/></g><g id="eye3"><ellipse class="cls-2" cx="20.34" cy="18.93" rx="11.66" ry="15.46"/><circle class="cls-3" cx="25.08" cy="11.73" r="4.85"/><path class="cls-4" d="M207.81,219.54c.73,1.49,2.05,3,5.18,3,2.88,0,4.54-1.49,5.1-3" transform="translate(-192.61 -193.92)"/></g><g id="eye4"><ellipse class="eye_color_filltype" cx="20.33" cy="19" rx="13.46" ry="13.17"/><path class="cls-3" d="M201.17,206.53s11.77,6.39,23.55,0l-2.39-3.05s-4.44-4.87-11.1-4S201.17,206.53,201.17,206.53Z" transform="translate(-192.61 -193.92)"/><path class="cls-3" d="M201.17,219.17s11.77-6.25,23.55,0l-2.39,3.05s-4.44,4.87-11.1,4S201.17,219.17,201.17,219.17Z" transform="translate(-192.61 -193.92)"/><ellipse class="cls-5" cx="20.33" cy="19" rx="13.46" ry="13.17"/></g><g id="eye5"><ellipse class="eye_color_filltype" cx="20.73" cy="19.01" rx="12.95" ry="16.32"/><path class="cls-3" d="M224.67,205s-11.33,7.92-22.65,0l2.3-3.78s4.27-6,10.68-4.94S224.67,205,224.67,205Z" transform="translate(-192.61 -193.92)"/><path class="cls-3" d="M224.67,220.68s-11.33-7.74-22.65,0l2.3,3.78s4.27,6,10.68,4.94S224.67,220.68,224.67,220.68Z" transform="translate(-192.61 -193.92)"/><ellipse class="cls-5" cx="20.73" cy="19.01" rx="12.95" ry="16.32"/></g><g id="eye6"><path class="eye_color_filltype" d="M195.61,203.66s0,18.73,17.56,18.73,17.56-18.73,17.56-18.73Z" transform="translate(-192.61 -193.92)"/><path class="cls-6" d="M212.75,203.66" transform="translate(-192.61 -193.92)"/><path class="eye_line" d="M195.61,203.66s0,18.73,17.56,18.73,17.56-18.73,17.56-18.73Z" transform="translate(-192.61 -193.92)"/></g><g id="eye7"><circle class="eye_color_filltype" cx="20.49" cy="18.45" r="15.39"/><circle class="eye_line" cx="20.49" cy="18.45" r="15.39"/><circle class="cls-3" cx="24.72" cy="14.61" r="6.2"/></g></svg>