<svg xmlns="http://www.w3.org/2000/svg" viewBox="0 0 1746.69 775.06"><defs><style>.cls-1{fill:#fafafa;stroke:#000;}.cls-1,.cls-2,.cls-3{stroke-miterlimit:10;}.cls-2{fill:#fff;}.cls-2,.cls-3{stroke:#231815;}.cls-3{fill:#fffcf0;}.cls-4{fill:#ffec3f;}.cls-5{fill:#fdd000;}.cls-6{fill:#f9d7e6;}.cls-7{fill:#3b3e2b;}.cls-8{fill:#8ec43e;}.cls-9{fill:#63a032;}.cls-10{fill:#bb7a8c;}.cls-11{fill:#fceece;}.cls-12{fill:#a74e5b;}.cls-13{fill:#0d2866;}.cls-14{fill:#da3b70;}.cls-15{fill:#f08441;}.cls-16{fill:#ea4d07;}.cls-17{fill:#cf0805;}.cls-18{fill:#101c34;}.cls-19{fill:#990a0f;}.cls-20{fill:#510922;}.cls-21{fill:#01703b;}.cls-22{fill:#340309;}.cls-23{fill:#563a14;}.cls-24{fill:#502b1f;}.cls-25{fill:#d4cabd;}.cls-26{fill:#515457;}.cls-27{fill:#ed658b;}.cls-28{fill:#2e8cc6;}.cls-29{fill:#1f609f;}.cls-30{fill:#132e4a;}.cls-31{fill:#baa27b;}.cls-32{fill:#806b51;}.cls-33{fill:#795c38;}.cls-34{fill:#ed6d34;}.cls-35{fill:#f7eaa1;}.cls-36{fill:#2d3a37;}.cls-37{fill:#3c3123;}.cls-38{fill:#292917;}.cls-39{fill:#c2cc66;}.cls-40{fill:#351e16;}.cls-41{fill:#050101;}.cls-42{fill:#001b44;}.cls-43{fill:#091432;}.cls-44{fill:#4e3885;}.cls-45{fill:#2a0d2d;}</style></defs><title>무제-1</title><g id="레이어_1" data-name="레이어 1"><circle class="cls-1" cx="54.64" cy="52" r="51.5"/><circle class="cls-2" cx="190.82" cy="52" r="51.5"/><circle class="cls-3" cx="327" cy="52" r="51.5"/><circle class="cls-4" cx="463.19" cy="52" r="51.5"/><circle class="cls-5" cx="52.64" cy="186.31" r="51.5"/><circle class="cls-6" cx="188.82" cy="186.31" r="51.5"/><circle class="cls-7" cx="325" cy="186.31" r="51.5"/><circle class="cls-8" cx="461.19" cy="186.31" r="51.5"/><circle class="cls-9" cx="52.64" cy="320.62" r="51.5"/><circle class="cls-10" cx="188.82" cy="320.62" r="51.5"/><circle class="cls-11" cx="325" cy="320.62" r="51.5"/><circle class="cls-12" cx="461.19" cy="320.62" r="51.5"/><circle class="cls-13" cx="53.5" cy="454.93" r="51.5"/><circle class="cls-14" cx="189.68" cy="454.93" r="51.5"/><circle class="cls-15" cx="325.87" cy="454.93" r="51.5"/><circle class="cls-16" cx="462.05" cy="454.93" r="51.5"/><circle class="cls-17" cx="51.5" cy="589.24" r="51.5"/><circle class="cls-18" cx="187.68" cy="589.24" r="51.5"/><circle class="cls-19" cx="323.87" cy="589.24" r="51.5"/><circle class="cls-20" cx="460.05" cy="589.24" r="51.5"/><circle class="cls-21" cx="51.5" cy="723.56" r="51.5"/><circle class="cls-22" cx="187.68" cy="723.56" r="51.5"/><circle class="cls-23" cx="323.87" cy="723.56" r="51.5"/><circle class="cls-24" cx="460.05" cy="723.56" r="51.5"/></g><g id="레이어_2" data-name="레이어 2"><circle class="cls-25" cx="669.92" cy="52" r="51.5"/><circle class="cls-26" cx="806.1" cy="52" r="51.5"/><circle class="cls-27" cx="942.28" cy="52" r="51.5"/><circle class="cls-28" cx="1078.47" cy="52" r="51.5"/><circle class="cls-29" cx="667.92" cy="186.31" r="51.5"/><circle class="cls-30" cx="804.1" cy="186.31" r="51.5"/><circle class="cls-31" cx="940.28" cy="186.31" r="51.5"/><circle class="cls-32" cx="1076.47" cy="186.31" r="51.5"/><circle class="cls-33" cx="667.92" cy="320.62" r="51.5"/><circle class="cls-34" cx="804.1" cy="320.62" r="51.5"/><circle class="cls-35" cx="802.96" cy="589.24" r="51.5"/><circle class="cls-36" cx="939.15" cy="589.24" r="51.5"/><circle cx="1075.33" cy="589.24" r="51.5"/><circle class="cls-37" cx="666.78" cy="723.56" r="51.5"/><circle class="cls-38" cx="802.96" cy="723.56" r="51.5"/><circle class="cls-39" cx="939.15" cy="723.56" r="51.5"/><circle class="cls-40" cx="1075.33" cy="723.56" r="51.5"/></g><g id="레이어_3" data-name="레이어 3"><circle class="cls-41" cx="1286.64" cy="53" r="51.5"/><circle class="cls-42" cx="1422.82" cy="53" r="51.5"/><circle class="cls-43" cx="1559" cy="53" r="51.5"/><circle class="cls-44" cx="1695.19" cy="53" r="51.5"/><circle class="cls-45" cx="1284.64" cy="187.31" r="51.5"/></g></svg>