<svg xmlns="http://www.w3.org/2000/svg" viewBox="0 0 1726 1221"><defs><style>.cls-1{fill:#ffe6e1;}.cls-2{fill:#ffe4e4;}.cls-3{fill:#ffdedc;}.cls-4{fill:#f4eceb;}.cls-5{fill:#f9e6ee;}.cls-6{fill:#efcfdd;}.cls-7{fill:#edbed3;}.cls-8{fill:#eeb3d0;}.cls-9{fill:#ecb2c2;}.cls-10{fill:#e39ecc;}.cls-11{fill:#e57399;}.cls-12{fill:#f399a4;}.cls-13{fill:#f18f9a;}.cls-14{fill:#e15f6e;}.cls-15{fill:#c24253;}.cls-16{fill:#c56580;}.cls-17{fill:#d04075;}.cls-18{fill:#d13789;}.cls-19{fill:#cf1c4f;}.cls-20{fill:#ff310a;}.cls-21{fill:red;}.cls-22{fill:#e7000c;}.cls-23{fill:#910000;}.cls-24{fill:#6d002f;}.cls-25{fill:#ffb686;}.cls-26{fill:#ff9e5f;}.cls-27{fill:#ff7955;}.cls-28{fill:#c43628;}.cls-29{fill:#ff2727;}.cls-30{fill:#f9d0c3;}.cls-31{fill:#ffaf97;}.cls-32{fill:#ff4a2c;}.cls-33{fill:#ff937d;}.cls-34{fill:#ff6969;}.cls-35{fill:#ffeabc;}.cls-36{fill:#f3dcb4;}.cls-37{fill:#ffdb9e;}.cls-38{fill:#e4b065;}.cls-39{fill:#fffad8;}.cls-40{fill:#fffcea;}.cls-41{fill:#fff3a5;}.cls-42{fill:#ffe478;}.cls-43{fill:#fd5;}.cls-44{fill:#ffd010;}.cls-45{fill:#ffc85c;}.cls-46{fill:#ffff3d;}.cls-47{fill:#ecde7c;}.cls-48{fill:#f2b019;}.cls-49{fill:#f8ae2b;}.cls-50{fill:#c8cd6e;}.cls-51{fill:#b9ab5a;}.cls-52{fill:#58663d;}.cls-53{fill:#36472d;}.cls-54{fill:#91ee00;}.cls-55{fill:#59f100;}.cls-56{fill:#a3ecc7;}.cls-57{fill:#63d290;}.cls-58{fill:#619d9d;}.cls-59{fill:#3c8d7e;}.cls-60{fill:#227272;}.cls-61{fill:#c6e9a1;}.cls-62{fill:#85c867;}.cls-63{fill:#147630;}.cls-64{fill:#146230;}.cls-65{fill:#144430;}.cls-66{fill:#1cb63d;}.cls-67{fill:#10902c;}.cls-68{fill:#eefeff;}.cls-69{fill:#d0e8ea;}.cls-70{fill:#9eccdb;}.cls-71{fill:#b5e1e8;}.cls-72{fill:#88abba;}.cls-73{fill:#89b1d4;}.cls-74{fill:#4f89c9;}.cls-75{fill:#4f72c9;}.cls-76{fill:#b6ffff;}.cls-77{fill:#00bff2;}.cls-78{fill:#0089bf;}.cls-79{fill:#83fff6;}.cls-80{fill:#1ebcca;}.cls-81{fill:#007f89;}.cls-82{fill:#005959;}.cls-83{fill:#005a72;}.cls-84{fill:#00536d;}.cls-85{fill:#0800f9;}.cls-86{fill:#0000d1;}.cls-87{fill:#1b00bc;}.cls-88{fill:#123d82;}.cls-89{fill:#0f337a;}.cls-90{fill:#080f5e;}.cls-91{fill:#f1d9ff;}.cls-92{fill:#bbb9ef;}.cls-93{fill:#a89ded;}.cls-94{fill:#54439e;}.cls-95{fill:#672ebf;}.cls-96{fill:#7c1247;}.cls-97{fill:#254677;}.cls-98{fill:#103366;}.cls-99{fill:#353e8e;}.cls-100{fill:#232b6f;}.cls-101{fill:#0f0d46;}.cls-102{fill:#ce97bf;}.cls-103{fill:#c482bb;}.cls-104{fill:#9e667a;}.cls-105{fill:#442b43;}.cls-106{fill:#9b627e;}.cls-107{fill:#d8d0c0;}.cls-108{fill:#f2e3d6;}.cls-109{fill:#dcc69e;}.cls-110{fill:#a88260;}.cls-111{fill:#7f674f;}.cls-112{fill:#70481d;}.cls-113{fill:#876d60;}.cls-114{fill:#5c413d;}.cls-115{fill:#47241b;}.cls-116{fill:#2d110c;}.cls-117{fill:#49232a;}.cls-118{fill:#4d393e;}.cls-119{fill:#471334;}.cls-120{fill:#382737;}.cls-121{fill:#ffd4a9;}.cls-122{fill:#ffce99;}.cls-123{fill:#af6f3f;}.cls-124{fill:#7c4a28;}.cls-125{fill:#491717;}.cls-126{fill:#efaa65;}.cls-127{fill:#e08d44;}.cls-128{fill:#f7f3f2;}.cls-129{fill:#dedce0;}.cls-130{fill:#aaa;}.cls-131{fill:#b1b7b0;}.cls-132{fill:#78777c;}.cls-133{fill:#686766;}.cls-134{fill:#3f4142;}.cls-135{fill:#32383d;}.cls-136{fill:#2d302f;}.cls-137{fill:#3b3d47;}.cls-138{fill:#fff;stroke:#000;stroke-miterlimit:10;}.cls-139{fill:#fcfcf9;}.cls-140{fill:#f7f7f3;}.cls-141{fill:#0a0a0a;}.cls-142{fill:#1f2438;}</style></defs><title>실색상차트</title><g id="분홍빨강"><circle class="cls-1" cx="36" cy="36" r="35"/><circle class="cls-2" cx="136" cy="36" r="35"/><circle class="cls-3" cx="236" cy="36" r="35"/><circle class="cls-4" cx="336" cy="36" r="35"/><circle class="cls-5" cx="36" cy="136" r="35"/><circle class="cls-6" cx="136" cy="136" r="35"/><circle class="cls-7" cx="236" cy="136" r="35"/><circle class="cls-8" cx="336" cy="136" r="35"/><circle class="cls-9" cx="36" cy="236" r="35"/><circle class="cls-10" cx="136" cy="236" r="35"/><circle class="cls-11" cx="236" cy="236" r="35"/><circle class="cls-12" cx="36" cy="336" r="35"/><circle class="cls-13" cx="136" cy="336" r="35"/><circle class="cls-14" cx="236" cy="336" r="35"/><circle class="cls-15" cx="336" cy="336" r="35"/><circle class="cls-16" cx="36" cy="436" r="35"/><circle class="cls-16" cx="136" cy="436" r="35"/><circle class="cls-17" cx="36" cy="536" r="35"/><circle class="cls-18" cx="136" cy="536" r="35"/><circle class="cls-19" cx="236" cy="536" r="35"/></g><g id="주황빨깅"><circle class="cls-20" cx="486" cy="36" r="35"/><circle class="cls-21" cx="586" cy="36" r="35"/><circle class="cls-22" cx="686" cy="36" r="35"/><circle class="cls-23" cx="486" cy="136" r="35"/><circle class="cls-24" cx="586" cy="136" r="35"/><circle class="cls-25" cx="486" cy="236" r="35"/><circle class="cls-26" cx="586" cy="236" r="35"/><circle class="cls-27" cx="686" cy="236" r="35"/><circle class="cls-28" cx="486" cy="336" r="35"/><circle class="cls-29" cx="586" cy="336" r="35"/><circle class="cls-30" cx="486" cy="436" r="35"/><circle class="cls-31" cx="586" cy="436" r="35"/><circle class="cls-32" cx="786" cy="236" r="35"/><circle class="cls-33" cx="686" cy="436" r="35"/><circle class="cls-34" cx="786" cy="436" r="35"/></g><g id="노랑"><circle class="cls-35" cx="935" cy="35" r="35"/><circle class="cls-36" cx="1035" cy="35" r="35"/><circle class="cls-37" cx="1135" cy="35" r="35"/><circle class="cls-38" cx="1235" cy="35" r="35"/><circle class="cls-39" cx="935" cy="135" r="35"/><circle class="cls-40" cx="1035" cy="135" r="35"/><circle class="cls-41" cx="1135" cy="135" r="35"/><circle class="cls-42" cx="1235" cy="135" r="35"/><circle class="cls-43" cx="935" cy="235" r="35"/><circle class="cls-44" cx="1035" cy="235" r="35"/><circle class="cls-45" cx="1135" cy="235" r="35"/><circle class="cls-46" cx="935" cy="335" r="35"/><circle class="cls-47" cx="1035" cy="335" r="35"/><circle class="cls-48" cx="935" cy="435" r="35"/><circle class="cls-49" cx="1235" cy="235" r="35"/></g><g id="초록"><circle class="cls-50" cx="1391" cy="36" r="35"/><circle class="cls-51" cx="1491" cy="36" r="35"/><circle class="cls-52" cx="1591" cy="36" r="35"/><circle class="cls-53" cx="1691" cy="36" r="35"/><circle class="cls-54" cx="1391" cy="136" r="35"/><circle class="cls-55" cx="1491" cy="136" r="35"/><circle class="cls-56" cx="1391" cy="236" r="35"/><circle class="cls-57" cx="1491" cy="236" r="35"/><circle class="cls-58" cx="1391" cy="336" r="35"/><circle class="cls-59" cx="1491" cy="336" r="35"/><circle class="cls-60" cx="1591" cy="336" r="35"/><circle class="cls-61" cx="1391" cy="436" r="35"/><circle class="cls-62" cx="1491" cy="436" r="35"/><circle class="cls-63" cx="1391" cy="536" r="35"/><circle class="cls-64" cx="1491" cy="536" r="35"/><circle class="cls-65" cx="1591" cy="536" r="35"/><circle class="cls-66" cx="1591" cy="436" r="35"/><circle class="cls-67" cx="1691" cy="436" r="35"/></g><g id="파랑"><circle class="cls-68" cx="35" cy="686" r="35"/><circle class="cls-69" cx="135" cy="686" r="35"/><circle class="cls-70" cx="235" cy="686" r="35"/><circle class="cls-71" cx="335" cy="686" r="35"/><circle class="cls-72" cx="35" cy="786" r="35"/><circle class="cls-73" cx="135" cy="786" r="35"/><circle class="cls-74" cx="235" cy="786" r="35"/><circle class="cls-75" cx="335" cy="786" r="35"/><circle class="cls-76" cx="35" cy="886" r="35"/><circle class="cls-77" cx="135" cy="886" r="35"/><circle class="cls-78" cx="235" cy="886" r="35"/><circle class="cls-79" cx="35" cy="986" r="35"/><circle class="cls-80" cx="135" cy="986" r="35"/><circle class="cls-81" cx="235" cy="986" r="35"/><circle class="cls-82" cx="335" cy="986" r="35"/><circle class="cls-83" cx="35" cy="1086" r="35"/><circle class="cls-84" cx="135" cy="1086" r="35"/><circle class="cls-85" cx="35" cy="1186" r="35"/><circle class="cls-86" cx="135" cy="1186" r="35"/><circle class="cls-87" cx="235" cy="1186" r="35"/><circle class="cls-88" cx="235" cy="1086" r="35"/><circle class="cls-89" cx="335" cy="1086" r="35"/><circle class="cls-90" cx="335" cy="1186" r="35"/></g><g id="보라"><circle class="cls-91" cx="486" cy="686" r="35"/><circle class="cls-92" cx="586" cy="686" r="35"/><circle class="cls-93" cx="686" cy="686" r="35"/><circle class="cls-94" cx="786" cy="686" r="35"/><circle class="cls-95" cx="486" cy="786" r="35"/><circle class="cls-96" cx="586" cy="786" r="35"/><circle class="cls-97" cx="486" cy="886" r="35"/><circle class="cls-98" cx="586" cy="886" r="35"/><circle class="cls-99" cx="486" cy="986" r="35"/><circle class="cls-100" cx="586" cy="986" r="35"/><circle class="cls-101" cx="686" cy="986" r="35"/><circle class="cls-102" cx="486" cy="1086" r="35"/><circle class="cls-103" cx="586" cy="1086" r="35"/><circle class="cls-104" cx="486" cy="1186" r="35"/><circle class="cls-105" cx="586" cy="1186" r="35"/><circle class="cls-106" cx="686" cy="1086" r="35"/></g><g id="갈색"><circle class="cls-107" cx="936" cy="685" r="35"/><circle class="cls-108" cx="1036" cy="685" r="35"/><circle class="cls-109" cx="1136" cy="685" r="35"/><circle class="cls-110" cx="1236" cy="685" r="35"/><circle class="cls-111" cx="936" cy="785" r="35"/><circle class="cls-112" cx="1036" cy="785" r="35"/><circle class="cls-113" cx="1136" cy="785" r="35"/><circle class="cls-114" cx="1236" cy="785" r="35"/><circle class="cls-115" cx="936" cy="885" r="35"/><circle class="cls-116" cx="1036" cy="885" r="35"/><circle class="cls-117" cx="1136" cy="885" r="35"/><circle class="cls-118" cx="936" cy="985" r="35"/><circle class="cls-119" cx="1036" cy="985" r="35"/><circle class="cls-120" cx="1136" cy="985" r="35"/><circle class="cls-121" cx="936" cy="1085" r="35"/><circle class="cls-122" cx="1036" cy="1085" r="35"/><circle class="cls-123" cx="936" cy="1185" r="35"/><circle class="cls-124" cx="1036" cy="1185" r="35"/><circle class="cls-125" cx="1236" cy="885" r="35"/><circle class="cls-126" cx="1136" cy="1085" r="35"/><circle class="cls-127" cx="1236" cy="1085" r="35"/></g><g id="희색"><circle class="cls-128" cx="1387" cy="686" r="35"/><circle class="cls-129" cx="1487" cy="686" r="35"/><circle class="cls-130" cx="1587" cy="686" r="35"/><circle class="cls-131" cx="1386" cy="786" r="35"/><circle class="cls-132" cx="1486" cy="786" r="35"/><circle class="cls-133" cx="1586" cy="786" r="35"/><circle class="cls-134" cx="1686" cy="786" r="35"/><circle class="cls-135" cx="1386" cy="886" r="35"/><circle class="cls-136" cx="1486" cy="886" r="35"/><circle class="cls-137" cx="1586" cy="886" r="35"/><circle class="cls-138" cx="1386" cy="986" r="35"/><circle class="cls-139" cx="1486" cy="986" r="35"/><circle class="cls-140" cx="1586" cy="986" r="35"/><circle cx="1386" cy="1086" r="35"/><circle class="cls-141" cx="1486" cy="1086" r="35"/><circle class="cls-142" cx="1686" cy="886" r="35"/></g></svg>