<svg xmlns="http://www.w3.org/2000/svg" viewBox="0 0 2357.48 776.41"><defs><style>.cls-1{fill:#bda789;}.cls-2{fill:#aaa090;}.cls-3{fill:#947247;}.cls-4{fill:#645d48;}.cls-5{fill:#5d4b23;}.cls-6{fill:#544941;}.cls-7{fill:#322a24;}.cls-8{fill:#50271e;}.cls-9{fill:#38291e;}.cls-10{fill:#212110;}.cls-11{fill:#f9df82;}.cls-12{fill:#f5bb23;}.cls-13{fill:#f5d90f;}.cls-14{fill:#b8b442;}.cls-15{fill:#bc8d25;}.cls-16{fill:#6bba3e;}.cls-17{fill:#3b3c21;}.cls-18{fill:#294c2b;}.cls-19{fill:#0f3622;}.cls-20{fill:#454c33;}.cls-21{fill:#fdeff5;}.cls-22{fill:#f4b3c2;}.cls-23{fill:#f4caaa;}.cls-24{fill:#c27580;}.cls-25{fill:#dd7a83;}.cls-26{fill:#ee87b4;}.cls-27{fill:#e36083;}.cls-28{fill:#c53567;}.cls-29{fill:#bc2854;}.cls-30{fill:#ae90bc;}.cls-31{fill:#6c4b81;}.cls-32{fill:#34274b;}.cls-33{fill:#3a1b35;}.cls-34{fill:#373033;}.cls-35{fill:#211b24;}.cls-36{fill:#c5e1f6;}.cls-37{fill:#8faab3;}.cls-38{fill:#50ceda;}.cls-39{fill:#273b59;}.cls-40{fill:#233770;}.cls-41{fill:#0b1023;}.cls-42{fill:#111617;}.cls-43{fill:#0a0d0a;}.cls-44{fill:#cbcbcb;}.cls-45{fill:#716b64;}.cls-46{fill:#222220;}.cls-47{fill:#ef501d;}.cls-48{fill:#a8220f;}.cls-49{fill:#890d1c;}.cls-50{fill:#71101f;}.cls-51{fill:#491314;}.cls-52{fill:#2c090c;}.cls-53{fill:#261516;}.cls-54{fill:#34373a;}.cls-55{fill:#222327;}.cls-56{fill:#231815;}.cls-57{fill:#9c667e;}.cls-58{fill:#ebcdcc;}.cls-59{fill:#856362;}.cls-60{fill:#3b4641;}.cls-61{fill:#ad0c25;}.cls-62{fill:#6b8b9d;}.cls-63{fill:#0081cc;}.cls-64{fill:#635a15;}.cls-65{fill:#87aa97;}</style></defs><title>통일상사 폴라폴리스</title><g id="레이어_1" data-name="레이어 1"><circle class="cls-1" cx="51.5" cy="590.6" r="51.5"/><circle class="cls-2" cx="187.68" cy="590.6" r="51.5"/><circle class="cls-3" cx="323.87" cy="590.6" r="51.5"/><circle class="cls-4" cx="460.05" cy="590.6" r="51.5"/><circle class="cls-5" cx="51.5" cy="724.91" r="51.5"/><circle class="cls-6" cx="187.68" cy="724.91" r="51.5"/><circle class="cls-7" cx="323.87" cy="724.91" r="51.5"/><circle class="cls-8" cx="460.05" cy="724.91" r="51.5"/></g><g id="레이어_2" data-name="레이어 2"><circle class="cls-9" cx="669.92" cy="52.29" r="51.5"/><circle class="cls-10" cx="806.1" cy="52.29" r="51.5"/><circle class="cls-11" cx="942.28" cy="52.29" r="51.5"/><circle class="cls-12" cx="1078.47" cy="52.29" r="51.5"/><circle class="cls-13" cx="667.92" cy="186.6" r="51.5"/><circle class="cls-14" cx="804.1" cy="186.6" r="51.5"/><circle class="cls-15" cx="940.28" cy="186.6" r="51.5"/><circle class="cls-16" cx="1076.47" cy="186.6" r="51.5"/><circle class="cls-17" cx="667.92" cy="320.91" r="51.5"/><circle class="cls-18" cx="802.96" cy="320.91" r="51.5"/><circle class="cls-19" cx="940.28" cy="320.91" r="51.5"/><circle class="cls-20" cx="1076.47" cy="320.91" r="51.5"/><circle class="cls-21" cx="668.78" cy="455.23" r="51.5"/><circle class="cls-22" cx="804.96" cy="455.23" r="51.5"/><circle class="cls-23" cx="941.15" cy="455.23" r="51.5"/><circle class="cls-24" cx="1077.33" cy="455.23" r="51.5"/><circle class="cls-25" cx="666.78" cy="589.54" r="51.5"/><circle class="cls-26" cx="802.96" cy="589.54" r="51.5"/><circle class="cls-27" cx="939.15" cy="589.54" r="51.5"/><circle class="cls-28" cx="1075.33" cy="589.54" r="51.5"/><circle class="cls-29" cx="666.78" cy="723.85" r="51.5"/><circle class="cls-30" cx="802.96" cy="723.85" r="51.5"/><circle class="cls-31" cx="939.15" cy="723.85" r="51.5"/><circle class="cls-32" cx="1075.33" cy="723.85" r="51.5"/></g><g id="레이어_3" data-name="레이어 3"><circle class="cls-33" cx="1285.2" cy="51.5" r="51.5"/><circle class="cls-34" cx="1421.38" cy="51.5" r="51.5"/><circle class="cls-35" cx="1557.56" cy="51.5" r="51.5"/><circle class="cls-36" cx="1693.75" cy="51.5" r="51.5"/><circle class="cls-37" cx="1283.2" cy="185.81" r="51.5"/><circle class="cls-38" cx="1419.38" cy="185.81" r="51.5"/><circle class="cls-39" cx="1555.56" cy="185.81" r="51.5"/><circle class="cls-40" cx="1691.75" cy="185.81" r="51.5"/><circle class="cls-41" cx="1283.2" cy="320.12" r="51.5"/><circle class="cls-42" cx="1419.38" cy="320.12" r="51.5"/><circle class="cls-43" cx="1555.56" cy="320.12" r="51.5"/><circle class="cls-44" cx="1691.75" cy="320.12" r="51.5"/><circle class="cls-45" cx="1284.06" cy="454.43" r="51.5"/><circle class="cls-46" cx="1420.24" cy="454.43" r="51.5"/><circle class="cls-47" cx="1556.43" cy="454.43" r="51.5"/><circle class="cls-48" cx="1692.61" cy="454.43" r="51.5"/><circle class="cls-49" cx="1282.06" cy="588.74" r="51.5"/><circle class="cls-50" cx="1418.24" cy="588.74" r="51.5"/><circle class="cls-51" cx="1554.43" cy="588.74" r="51.5"/><circle class="cls-52" cx="1690.61" cy="588.74" r="51.5"/><circle class="cls-53" cx="1282.06" cy="723.06" r="51.5"/><circle class="cls-54" cx="1897.43" cy="67.16" r="51.5"/><circle class="cls-55" cx="2169.8" cy="67.16" r="51.5"/><circle class="cls-56" cx="2305.98" cy="67.16" r="51.5"/><circle class="cls-57" cx="2303.98" cy="201.47" r="51.5"/><circle class="cls-58" cx="1895.43" cy="335.78" r="51.5"/><circle class="cls-59" cx="2031.61" cy="335.78" r="51.5"/><circle class="cls-60" cx="2167.8" cy="335.78" r="51.5"/><circle class="cls-61" cx="2303.98" cy="335.78" r="51.5"/><circle class="cls-62" cx="1896.3" cy="470.09" r="51.5"/><circle class="cls-63" cx="2032.48" cy="470.09" r="51.5"/><circle class="cls-64" cx="2168.66" cy="470.09" r="51.5"/><circle class="cls-65" cx="2304.85" cy="470.09" r="51.5"/></g></svg>